STARTFONT 2.1
COMMENT
COMMENT Converted from OpenType font "..\ttf\ITC Avant Garde Gothic CE Book.otf" by "otf2bdf.exe 3.0".
COMMENT
FONT -FreeType-AvantGarde CE-Medium-R-Normal--29-210-100-100-P-138-ISO10646-1
SIZE 21 100 100
FONTBOUNDINGBOX 36 36 -2 -7
STARTPROPERTIES 19
FOUNDRY "FreeType"
FAMILY_NAME "AvantGarde CE"
WEIGHT_NAME "Medium"
SLANT "R"
SETWIDTH_NAME "Normal"
ADD_STYLE_NAME ""
PIXEL_SIZE 29
POINT_SIZE 210
RESOLUTION_X 100
RESOLUTION_Y 100
SPACING "P"
AVERAGE_WIDTH 138
CHARSET_REGISTRY "ISO10646"
CHARSET_ENCODING "1"
FONT_ASCENT 21
FONT_DESCENT 5
COPYRIGHT "Copyright (c) 1985, 1987, 1989, 1990, 1991, 1992, 1997 Adobe Systems Incorporated.  All Rights Reserved.ITC Avant Garde Gothic is a registered trademark of International Typeface Corporation."
_OTF_FONTFILE "..\ttf\ITC Avant Garde Gothic CE Book.otf"
_OTF_PSNAME "AvantGardeCE-Book"
ENDPROPERTIES
CHARS 260
STARTCHAR 0020
ENCODING 32
SWIDTH 274 0
DWIDTH 8 0
BBX 0 0 0 0
BITMAP
ENDCHAR
STARTCHAR 0021
ENCODING 33
SWIDTH 308 0
DWIDTH 9 0
BBX 2 22 3 0
BITMAP
C0
C0
C0
C0
C0
C0
C0
C0
C0
C0
C0
C0
C0
C0
C0
C0
00
00
C0
C0
C0
C0
ENDCHAR
STARTCHAR 0022
ENCODING 34
SWIDTH 308 0
DWIDTH 9 0
BBX 7 9 1 13
BITMAP
C6
C6
C6
C6
C6
C6
C6
C6
C6
ENDCHAR
STARTCHAR 0023
ENCODING 35
SWIDTH 548 0
DWIDTH 16 0
BBX 14 22 1 0
BITMAP
0630
0630
0630
0C30
0C30
0C30
7FFC
7FFC
0C60
0C60
0C60
1860
1860
1860
FFF8
FFF8
18C0
18C0
30C0
30C0
30C0
30C0
ENDCHAR
STARTCHAR 0024
ENCODING 36
SWIDTH 548 0
DWIDTH 16 0
BBX 12 25 2 -2
BITMAP
0600
0600
0F00
1FC0
30E0
6070
6030
6000
6000
7000
3C00
1F80
03E0
0060
0030
0030
C030
C030
E070
70E0
3FC0
1F80
0600
0600
0600
ENDCHAR
STARTCHAR 0025
ENCODING 37
SWIDTH 788 0
DWIDTH 23 0
BBX 21 22 1 0
BITMAP
1E0180
3F8300
618300
C0C600
C0C600
C0CC00
C0CC00
E1D800
719800
3F3000
1E2000
006100
004FE0
00DC70
019838
01B018
033018
033018
063818
041830
0C0FE0
0807C0
ENDCHAR
STARTCHAR 0026
ENCODING 38
SWIDTH 754 0
DWIDTH 22 0
BBX 19 22 2 0
BITMAP
078000
1FE000
186000
303000
303000
303000
387000
1CE000
0FC180
0F8380
3F8300
71C700
60E600
C07C00
C03C00
C01C00
C01E00
C03700
607380
70E1C0
3FC0E0
0F0040
ENDCHAR
STARTCHAR 0027
ENCODING 39
SWIDTH 205 0
DWIDTH 6 0
BBX 2 9 2 13
BITMAP
C0
C0
C0
C0
C0
C0
C0
C0
C0
ENDCHAR
STARTCHAR 0028
ENCODING 40
SWIDTH 377 0
DWIDTH 11 0
BBX 9 28 1 -6
BITMAP
0080
0380
0700
0E00
1C00
1800
3000
7000
6000
6000
E000
C000
C000
C000
C000
C000
C000
E000
6000
6000
7000
3000
3800
1C00
0E00
0700
0380
0080
ENDCHAR
STARTCHAR 0029
ENCODING 41
SWIDTH 377 0
DWIDTH 11 0
BBX 9 28 0 -5
BITMAP
C000
E000
7000
3800
1C00
0E00
0600
0700
0300
0300
0380
0180
0180
0180
0180
0180
0180
0180
0300
0300
0700
0600
0E00
1C00
3800
7000
E000
8000
ENDCHAR
STARTCHAR 002A
ENCODING 42
SWIDTH 411 0
DWIDTH 12 0
BBX 9 8 1 13
BITMAP
0C00
0C00
4C80
FF80
3E00
1C00
3600
3300
ENDCHAR
STARTCHAR 002B
ENCODING 43
SWIDTH 617 0
DWIDTH 18 0
BBX 14 14 2 1
BITMAP
0300
0300
0300
0300
0300
0300
FFFC
FFFC
0300
0300
0300
0300
0300
0300
ENDCHAR
STARTCHAR 002C
ENCODING 44
SWIDTH 274 0
DWIDTH 8 0
BBX 5 6 0 -2
BITMAP
38
30
30
60
60
E0
ENDCHAR
STARTCHAR 002D
ENCODING 45
SWIDTH 342 0
DWIDTH 10 0
BBX 8 2 1 7
BITMAP
FF
FF
ENDCHAR
STARTCHAR 002E
ENCODING 46
SWIDTH 274 0
DWIDTH 8 0
BBX 2 4 3 0
BITMAP
C0
C0
C0
C0
ENDCHAR
STARTCHAR 002F
ENCODING 47
SWIDTH 445 0
DWIDTH 13 0
BBX 10 25 1 -3
BITMAP
00C0
01C0
0180
0180
0380
0300
0300
0700
0600
0600
0E00
0C00
0C00
0C00
1800
1800
1800
3000
3000
3000
6000
6000
6000
C000
C000
ENDCHAR
STARTCHAR 0030
ENCODING 48
SWIDTH 548 0
DWIDTH 16 0
BBX 14 22 1 0
BITMAP
0FC0
1FE0
3870
6018
E01C
C00C
C00C
C00C
C00C
C00C
C00C
C00C
C00C
C00C
C00C
C00C
C00C
E01C
6018
3870
1FE0
0FC0
ENDCHAR
STARTCHAR 0031
ENCODING 49
SWIDTH 548 0
DWIDTH 16 0
BBX 6 22 4 0
BITMAP
FC
FC
0C
0C
0C
0C
0C
0C
0C
0C
0C
0C
0C
0C
0C
0C
0C
0C
0C
0C
0C
0C
ENDCHAR
STARTCHAR 0032
ENCODING 50
SWIDTH 548 0
DWIDTH 16 0
BBX 14 22 1 0
BITMAP
0FC0
1FF0
3878
6018
E01C
C00C
C00C
000C
000C
0018
0038
0070
00E0
01C0
0380
0700
0C00
1800
3000
6000
FFFC
FFFC
ENDCHAR
STARTCHAR 0033
ENCODING 51
SWIDTH 548 0
DWIDTH 16 0
BBX 13 22 1 0
BITMAP
0F80
1FC0
38E0
7070
6030
6030
0030
0070
00E0
07C0
07E0
0070
0030
0018
0018
C018
C018
E018
6030
7070
3FE0
0F80
ENDCHAR
STARTCHAR 0034
ENCODING 52
SWIDTH 548 0
DWIDTH 16 0
BBX 15 22 0 0
BITMAP
0038
0038
0078
00F8
00D8
0198
0398
0318
0618
0E18
0C18
1C18
3818
3018
7018
6018
FFFE
FFFE
0018
0018
0018
0018
ENDCHAR
STARTCHAR 0035
ENCODING 53
SWIDTH 548 0
DWIDTH 16 0
BBX 14 22 1 0
BITMAP
1FF0
3FF0
3000
3000
3000
3000
7000
6780
7FE0
7870
6038
0018
000C
000C
000C
C00C
C00C
E018
6038
7870
3FE0
0F80
ENDCHAR
STARTCHAR 0036
ENCODING 54
SWIDTH 548 0
DWIDTH 16 0
BBX 14 22 1 0
BITMAP
01C0
0180
0300
0700
0600
0C00
1C00
1F80
3FE0
3870
7038
601C
C00C
C00C
C00C
C00C
C00C
6018
7018
3870
1FE0
0FC0
ENDCHAR
STARTCHAR 0037
ENCODING 55
SWIDTH 548 0
DWIDTH 16 0
BBX 12 22 2 0
BITMAP
FFF0
FFF0
0030
0060
0060
00E0
00C0
00C0
0180
0180
0300
0300
0700
0600
0600
0C00
0C00
1800
1800
3800
3000
3000
ENDCHAR
STARTCHAR 0038
ENCODING 56
SWIDTH 548 0
DWIDTH 16 0
BBX 14 22 1 0
BITMAP
07C0
1FE0
3870
7038
6018
6018
6018
7038
3870
1FE0
1FE0
3878
6018
E01C
C00C
C00C
C00C
E00C
6018
7878
1FE0
0FC0
ENDCHAR
STARTCHAR 0039
ENCODING 57
SWIDTH 548 0
DWIDTH 16 0
BBX 14 22 1 0
BITMAP
07C0
1FE0
3870
6038
601C
C00C
C00C
C00C
C00C
C00C
E01C
6018
3878
1FF0
0FE0
0060
00C0
0180
0180
0300
0600
0E00
ENDCHAR
STARTCHAR 003A
ENCODING 58
SWIDTH 274 0
DWIDTH 8 0
BBX 2 16 3 0
BITMAP
C0
C0
C0
C0
00
00
00
00
00
00
00
00
C0
C0
C0
C0
ENDCHAR
STARTCHAR 003B
ENCODING 59
SWIDTH 274 0
DWIDTH 8 0
BBX 4 18 1 -2
BITMAP
30
30
30
30
00
00
00
00
00
00
00
00
30
60
60
E0
C0
C0
ENDCHAR
STARTCHAR 003C
ENCODING 60
SWIDTH 617 0
DWIDTH 18 0
BBX 15 15 1 1
BITMAP
0006
001E
0078
01E0
0F80
3E00
F000
E000
7800
1E00
0780
01F0
007C
000E
0002
ENDCHAR
STARTCHAR 003D
ENCODING 61
SWIDTH 617 0
DWIDTH 18 0
BBX 15 8 1 3
BITMAP
FFFE
FFFE
0000
0000
0000
0000
FFFE
FFFE
ENDCHAR
STARTCHAR 003E
ENCODING 62
SWIDTH 617 0
DWIDTH 18 0
BBX 15 15 2 1
BITMAP
C000
F000
3C00
0F00
03E0
00F8
001E
000E
003C
00F0
03C0
1F00
7C00
E000
8000
ENDCHAR
STARTCHAR 003F
ENCODING 63
SWIDTH 582 0
DWIDTH 17 0
BBX 13 22 2 0
BITMAP
0F80
1FE0
3870
6030
E018
C018
C018
0018
0038
0030
0060
00C0
01C0
0180
0300
0300
0000
0000
0300
0300
0300
0300
ENDCHAR
STARTCHAR 0040
ENCODING 64
SWIDTH 857 0
DWIDTH 25 0
BBX 22 22 2 0
BITMAP
00FE00
07FF80
0E01E0
1C0070
380038
700018
60799C
61FD0C
C3870C
C3030C
C6030C
C6030C
C6020C
C60618
C70618
630E30
61FBE0
30F1C0
180000
0E0020
07FFE0
01FF00
ENDCHAR
STARTCHAR 0041
ENCODING 65
SWIDTH 754 0
DWIDTH 22 0
BBX 21 22 0 0
BITMAP
007000
007000
00F800
00D800
01DC00
018C00
018C00
030E00
030600
070700
060300
0E0380
0C0380
0FFF80
1FFFC0
1800C0
3800E0
300060
700070
600030
600030
C00038
ENDCHAR
STARTCHAR 0042
ENCODING 66
SWIDTH 582 0
DWIDTH 17 0
BBX 14 22 2 0
BITMAP
FF80
FFE0
C070
C038
C018
C018
C018
C018
C038
C070
FFE0
FFF0
C038
C01C
C00C
C00C
C00C
C00C
C018
C038
FFF0
FFC0
ENDCHAR
STARTCHAR 0043
ENCODING 67
SWIDTH 822 0
DWIDTH 24 0
BBX 21 22 1 0
BITMAP
00FC00
03FF80
0F03C0
1C00E0
380070
300038
600000
600000
E00000
C00000
C00000
C00000
C00000
C00000
600000
600000
700038
380030
1C00E0
0F03C0
07FF80
00FC00
ENDCHAR
STARTCHAR 0044
ENCODING 68
SWIDTH 754 0
DWIDTH 22 0
BBX 18 22 2 0
BITMAP
FFC000
FFF800
C03C00
C00E00
C00700
C00380
C00180
C001C0
C000C0
C000C0
C000C0
C000C0
C000C0
C000C0
C00180
C00180
C00380
C00700
C00E00
C03C00
FFF800
FFC000
ENDCHAR
STARTCHAR 0045
ENCODING 69
SWIDTH 548 0
DWIDTH 16 0
BBX 12 22 2 0
BITMAP
FFF0
FFF0
C000
C000
C000
C000
C000
C000
C000
C000
FFE0
FFE0
C000
C000
C000
C000
C000
C000
C000
C000
FFF0
FFF0
ENDCHAR
STARTCHAR 0046
ENCODING 70
SWIDTH 480 0
DWIDTH 14 0
BBX 11 22 2 0
BITMAP
FFE0
FFE0
C000
C000
C000
C000
C000
C000
C000
C000
FFC0
FFC0
C000
C000
C000
C000
C000
C000
C000
C000
C000
C000
ENDCHAR
STARTCHAR 0047
ENCODING 71
SWIDTH 857 0
DWIDTH 25 0
BBX 23 22 1 0
BITMAP
00FE00
03FF80
0F03E0
1C0070
380038
300018
600000
600000
E00000
C00000
C00000
C00000
C0FFFE
C0FFFE
60000C
60000C
70001C
380038
1C0070
0F01E0
03FF80
00FE00
ENDCHAR
STARTCHAR 0048
ENCODING 72
SWIDTH 685 0
DWIDTH 20 0
BBX 16 22 2 0
BITMAP
C003
C003
C003
C003
C003
C003
C003
C003
C003
C003
FFFF
FFFF
C003
C003
C003
C003
C003
C003
C003
C003
C003
C003
ENDCHAR
STARTCHAR 0049
ENCODING 73
SWIDTH 240 0
DWIDTH 7 0
BBX 2 22 2 0
BITMAP
C0
C0
C0
C0
C0
C0
C0
C0
C0
C0
C0
C0
C0
C0
C0
C0
C0
C0
C0
C0
C0
C0
ENDCHAR
STARTCHAR 004A
ENCODING 74
SWIDTH 480 0
DWIDTH 14 0
BBX 11 22 1 0
BITMAP
0060
0060
0060
0060
0060
0060
0060
0060
0060
0060
0060
0060
0060
0060
0060
0060
C060
C060
C0E0
70C0
7F80
1F00
ENDCHAR
STARTCHAR 004B
ENCODING 75
SWIDTH 582 0
DWIDTH 17 0
BBX 14 22 2 0
BITMAP
C00C
C01C
C038
C070
C0E0
C0C0
C1C0
C380
C700
C600
CC00
DE00
FF00
F300
E380
C1C0
C0E0
C060
C070
C038
C01C
C00C
ENDCHAR
STARTCHAR 004C
ENCODING 76
SWIDTH 445 0
DWIDTH 13 0
BBX 11 22 2 0
BITMAP
C000
C000
C000
C000
C000
C000
C000
C000
C000
C000
C000
C000
C000
C000
C000
C000
C000
C000
C000
C000
FFE0
FFE0
ENDCHAR
STARTCHAR 004D
ENCODING 77
SWIDTH 925 0
DWIDTH 27 0
BBX 22 22 2 0
BITMAP
E0001C
F0003C
F0003C
D8006C
D8006C
DC006C
CC00CC
CC00CC
C6018C
C6018C
C7038C
C3030C
C3030C
C1860C
C1860C
C1CE0C
C0CC0C
C0EC0C
C0780C
C0780C
C0780C
C0300C
ENDCHAR
STARTCHAR 004E
ENCODING 78
SWIDTH 754 0
DWIDTH 22 0
BBX 17 22 2 0
BITMAP
E00180
F00180
F80180
D80180
DC0180
CC0180
C60180
C70180
C30180
C18180
C1C180
C0C180
C06180
C07180
C03180
C01980
C01D80
C00D80
C00780
C00780
C00380
C00180
ENDCHAR
STARTCHAR 004F
ENCODING 79
SWIDTH 857 0
DWIDTH 25 0
BBX 23 22 1 0
BITMAP
00FE00
03FF80
0F01E0
1C0070
380038
30001C
60000C
60000C
C00006
C00006
C00006
C00006
C00006
C00006
60000C
60000C
300018
380038
1C0070
0F01E0
03FF80
00FE00
ENDCHAR
STARTCHAR 0050
ENCODING 80
SWIDTH 582 0
DWIDTH 17 0
BBX 14 22 2 0
BITMAP
FFC0
FFF0
C078
C018
C00C
C00C
C00C
C00C
C00C
C018
C078
FFF0
FFC0
C000
C000
C000
C000
C000
C000
C000
C000
C000
ENDCHAR
STARTCHAR 0051
ENCODING 81
SWIDTH 857 0
DWIDTH 25 0
BBX 23 22 1 0
BITMAP
00FE00
03FFC0
0F01E0
1C0070
380038
30001C
60000C
60000C
E00006
C00006
C00006
C00006
C00006
CFC006
7FF80E
703E0C
70079C
3801F8
1C00F0
0F01F0
03FFBE
00FE0E
ENDCHAR
STARTCHAR 0052
ENCODING 82
SWIDTH 617 0
DWIDTH 18 0
BBX 15 22 2 0
BITMAP
FFC0
FFF0
C038
C01C
C00E
C006
C006
C006
C006
C00E
C00C
C03C
C7F8
C7E0
C380
C1C0
C0C0
C0E0
C070
C038
C01C
C00C
ENDCHAR
STARTCHAR 0053
ENCODING 83
SWIDTH 514 0
DWIDTH 15 0
BBX 13 22 0 0
BITMAP
07C0
1FE0
3870
3038
6018
6018
6000
7000
3800
3E00
0FC0
01E0
0070
0038
0018
0018
E018
6018
7030
3870
1FE0
0F80
ENDCHAR
STARTCHAR 0054
ENCODING 84
SWIDTH 411 0
DWIDTH 12 0
BBX 12 22 0 0
BITMAP
FFF0
FFF0
0600
0600
0600
0600
0600
0600
0600
0600
0600
0600
0600
0600
0600
0600
0600
0600
0600
0600
0600
0600
ENDCHAR
STARTCHAR 0055
ENCODING 85
SWIDTH 651 0
DWIDTH 19 0
BBX 15 22 2 0
BITMAP
C006
C006
C006
C006
C006
C006
C006
C006
C006
C006
C006
C006
C006
C006
C006
C006
C006
600C
701C
3838
1FF0
07C0
ENDCHAR
STARTCHAR 0056
ENCODING 86
SWIDTH 685 0
DWIDTH 20 0
BBX 20 22 0 0
BITMAP
E00070
600060
600060
7000E0
3000C0
3801C0
180180
180180
1C0380
0C0300
0E0300
060600
060600
070E00
030C00
038C00
019800
019800
01F000
00F000
00F000
006000
ENDCHAR
STARTCHAR 0057
ENCODING 87
SWIDTH 960 0
DWIDTH 28 0
BBX 27 22 0 0
BITMAP
C00C0060
C00E00E0
E00E00C0
601E00C0
601F00C0
601B0180
701B0180
30330180
30338380
30318300
18718300
18618300
1860C600
1C60C600
0CC0C600
0CC0C600
0CC06C00
0EC06C00
07806C00
07807C00
07803800
03803800
ENDCHAR
STARTCHAR 0058
ENCODING 88
SWIDTH 617 0
DWIDTH 18 0
BBX 17 22 0 0
BITMAP
600300
700700
380600
180C00
1C1C00
0C1800
0E3000
077000
036000
03E000
01C000
01C000
03E000
077000
063000
0E3800
0C1800
180C00
380E00
300600
600300
E00380
ENDCHAR
STARTCHAR 0059
ENCODING 89
SWIDTH 582 0
DWIDTH 17 0
BBX 16 22 1 0
BITMAP
C003
E007
6006
700E
300C
381C
1818
1C38
0C30
0E70
0660
07E0
03C0
03C0
0180
0180
0180
0180
0180
0180
0180
0180
ENDCHAR
STARTCHAR 005A
ENCODING 90
SWIDTH 480 0
DWIDTH 14 0
BBX 13 22 0 0
BITMAP
FFF8
FFF8
0038
0030
0060
0060
00C0
01C0
0180
0380
0300
0600
0E00
0C00
1C00
1800
3000
7000
6000
E000
FFF8
FFF8
ENDCHAR
STARTCHAR 005B
ENCODING 91
SWIDTH 342 0
DWIDTH 10 0
BBX 6 27 4 -6
BITMAP
0C
1C
38
70
60
C0
C0
C0
C0
C0
C0
C0
C0
C0
C0
C0
C0
C0
C0
C0
C0
C0
E0
60
38
3C
0C
ENDCHAR
STARTCHAR 005C
ENCODING 92
SWIDTH 617 0
DWIDTH 18 0
BBX 10 25 3 -3
BITMAP
C000
E000
6000
6000
7000
3000
3000
1800
1800
1800
0C00
0C00
0C00
0600
0600
0600
0300
0300
0300
0180
0180
0180
00C0
00C0
00C0
ENDCHAR
STARTCHAR 005D
ENCODING 93
SWIDTH 342 0
DWIDTH 10 0
BBX 6 27 0 -6
BITMAP
C0
E0
70
38
18
0C
0C
0C
0C
0C
0C
0C
0C
0C
0C
0C
0C
0C
0C
0C
0C
0C
1C
18
30
F0
C0
ENDCHAR
STARTCHAR 005E
ENCODING 94
SWIDTH 617 0
DWIDTH 18 0
BBX 15 13 2 9
BITMAP
0380
0380
06C0
06C0
0C60
0C60
1830
1830
3018
3018
600C
600C
C006
ENDCHAR
STARTCHAR 005F
ENCODING 95
SWIDTH 514 0
DWIDTH 15 0
BBX 15 2 0 -4
BITMAP
FFFE
FFFE
ENDCHAR
STARTCHAR 0060
ENCODING 96
SWIDTH 377 0
DWIDTH 11 0
BBX 7 5 2 18
BITMAP
40
F0
78
1E
04
ENDCHAR
STARTCHAR 0061
ENCODING 97
SWIDTH 685 0
DWIDTH 20 0
BBX 17 16 1 0
BITMAP
03F180
0FF980
3C1F80
300780
600380
E00380
C00180
C00180
C00180
C00180
E00380
600380
700780
3C0D80
1FF980
03E180
ENDCHAR
STARTCHAR 0062
ENCODING 98
SWIDTH 685 0
DWIDTH 20 0
BBX 17 22 2 0
BITMAP
C00000
C00000
C00000
C00000
C00000
C00000
C3F000
CFFC00
DC1E00
F00700
E00300
E00380
C00180
C00180
C00180
C00180
E00380
E00300
F00700
DC0E00
CFF800
C3E000
ENDCHAR
STARTCHAR 0063
ENCODING 99
SWIDTH 651 0
DWIDTH 19 0
BBX 16 16 1 0
BITMAP
03F0
0FFC
3C0E
3007
6003
E000
C000
C000
C000
C000
E000
6003
7007
3C0E
0FFC
03F0
ENDCHAR
STARTCHAR 0064
ENCODING 100
SWIDTH 685 0
DWIDTH 20 0
BBX 17 22 1 0
BITMAP
000180
000180
000180
000180
000180
000180
03E180
0FF980
3C1F80
300780
600380
E00380
C00180
C00180
C00180
C00180
E00380
600380
700780
3C0D80
1FF980
03E180
ENDCHAR
STARTCHAR 0065
ENCODING 101
SWIDTH 651 0
DWIDTH 19 0
BBX 16 16 1 0
BITMAP
07E0
1FF8
381C
300E
6007
C003
C003
FFFF
FFFF
C000
C000
6007
7006
381C
1FF8
07E0
ENDCHAR
STARTCHAR 0066
ENCODING 102
SWIDTH 308 0
DWIDTH 9 0
BBX 8 22 1 0
BITMAP
07
1F
18
38
30
30
FF
FF
30
30
30
30
30
30
30
30
30
30
30
30
30
30
ENDCHAR
STARTCHAR 0067
ENCODING 103
SWIDTH 685 0
DWIDTH 20 0
BBX 17 22 1 -6
BITMAP
03E180
0FF980
3C1D80
300780
600380
E00380
C00180
C00180
C00180
C00180
E00380
600380
700780
3C0D80
0FF980
03E180
600180
700300
380700
1C0E00
0FFC00
03F000
ENDCHAR
STARTCHAR 0068
ENCODING 104
SWIDTH 617 0
DWIDTH 18 0
BBX 14 22 2 0
BITMAP
C000
C000
C000
C000
C000
C000
CFC0
DFF0
F078
E018
E01C
C00C
C00C
C00C
C00C
C00C
C00C
C00C
C00C
C00C
C00C
C00C
ENDCHAR
STARTCHAR 0069
ENCODING 105
SWIDTH 205 0
DWIDTH 6 0
BBX 2 22 2 0
BITMAP
C0
C0
C0
C0
00
00
C0
C0
C0
C0
C0
C0
C0
C0
C0
C0
C0
C0
C0
C0
C0
C0
ENDCHAR
STARTCHAR 006A
ENCODING 106
SWIDTH 205 0
DWIDTH 6 0
BBX 5 28 -1 -6
BITMAP
18
18
18
18
00
00
18
18
18
18
18
18
18
18
18
18
18
18
18
18
18
18
18
18
38
30
F0
C0
ENDCHAR
STARTCHAR 006B
ENCODING 107
SWIDTH 514 0
DWIDTH 15 0
BBX 12 22 2 0
BITMAP
C000
C000
C000
C000
C000
C000
C070
C0E0
C0C0
C180
C380
C700
C600
CC00
DC00
FE00
F700
E380
C1C0
C0C0
C060
C070
ENDCHAR
STARTCHAR 006C
ENCODING 108
SWIDTH 205 0
DWIDTH 6 0
BBX 2 22 2 0
BITMAP
C0
C0
C0
C0
C0
C0
C0
C0
C0
C0
C0
C0
C0
C0
C0
C0
C0
C0
C0
C0
C0
C0
ENDCHAR
STARTCHAR 006D
ENCODING 109
SWIDTH 925 0
DWIDTH 27 0
BBX 23 16 2 0
BITMAP
CF81E0
DFE7F8
F07E1C
E03C0E
C01806
C01806
C01806
C01806
C01806
C01806
C01806
C01806
C01806
C01806
C01806
C01806
ENDCHAR
STARTCHAR 006E
ENCODING 110
SWIDTH 617 0
DWIDTH 18 0
BBX 14 16 2 0
BITMAP
CFC0
DFF0
F078
E018
E01C
C00C
C00C
C00C
C00C
C00C
C00C
C00C
C00C
C00C
C00C
C00C
ENDCHAR
STARTCHAR 006F
ENCODING 111
SWIDTH 651 0
DWIDTH 19 0
BBX 17 16 1 0
BITMAP
03E000
0FF800
3C1E00
300700
600300
E00380
C00180
C00180
C00180
C00180
E00380
600300
700600
3C1E00
0FF800
03E000
ENDCHAR
STARTCHAR 0070
ENCODING 112
SWIDTH 685 0
DWIDTH 20 0
BBX 17 22 2 -6
BITMAP
C3F000
CFFC00
D81E00
F00700
E00300
E00380
C00180
C00180
C00180
C00180
E00380
E00300
F00700
DC0E00
CFF800
C3E000
C00000
C00000
C00000
C00000
C00000
C00000
ENDCHAR
STARTCHAR 0071
ENCODING 113
SWIDTH 685 0
DWIDTH 20 0
BBX 17 22 1 -6
BITMAP
03E180
0FF980
3C1D80
300780
600380
E00380
C00180
C00180
C00180
C00180
E00380
600380
700780
3C0D80
1FF980
03E180
000180
000180
000180
000180
000180
000180
ENDCHAR
STARTCHAR 0072
ENCODING 114
SWIDTH 308 0
DWIDTH 9 0
BBX 7 16 2 0
BITMAP
CE
DE
F8
E0
E0
C0
C0
C0
C0
C0
C0
C0
C0
C0
C0
C0
ENDCHAR
STARTCHAR 0073
ENCODING 115
SWIDTH 377 0
DWIDTH 11 0
BBX 10 16 1 0
BITMAP
3E00
7F00
E380
C180
C000
E000
7800
3F00
0780
01C0
00C0
C0C0
C0C0
E180
7F80
3E00
ENDCHAR
STARTCHAR 0074
ENCODING 116
SWIDTH 342 0
DWIDTH 10 0
BBX 9 22 1 0
BITMAP
1800
1800
1800
1800
1800
1800
FF80
FF80
1800
1800
1800
1800
1800
1800
1800
1800
1800
1800
1800
1800
1800
1800
ENDCHAR
STARTCHAR 0075
ENCODING 117
SWIDTH 617 0
DWIDTH 18 0
BBX 14 16 2 0
BITMAP
C00C
C00C
C00C
C00C
C00C
C00C
C00C
C00C
C00C
C00C
C00C
E01C
601C
703C
3FEC
0F8C
ENDCHAR
STARTCHAR 0076
ENCODING 118
SWIDTH 548 0
DWIDTH 16 0
BBX 16 16 0 0
BITMAP
E003
6006
7006
300E
300C
181C
1818
1C18
0C30
0C30
0670
0660
03E0
03C0
03C0
0180
ENDCHAR
STARTCHAR 0077
ENCODING 119
SWIDTH 822 0
DWIDTH 24 0
BBX 23 16 1 0
BITMAP
C00006
C0000C
E0300C
60380C
603818
307818
306C38
304C30
18CC30
18C660
1C8660
0D8660
0D86C0
0783C0
070380
070380
ENDCHAR
STARTCHAR 0078
ENCODING 120
SWIDTH 480 0
DWIDTH 14 0
BBX 13 16 0 0
BITMAP
E038
6030
3060
38E0
18C0
0D80
0F80
0700
0700
0F80
0D80
18C0
38E0
3060
6030
E038
ENDCHAR
STARTCHAR 0079
ENCODING 121
SWIDTH 548 0
DWIDTH 16 0
BBX 15 22 0 -6
BITMAP
C006
600C
600C
701C
3018
3038
1830
1830
1C60
0C60
0CE0
06C0
06C0
0780
0380
0300
0300
0300
0600
0600
0C00
0C00
ENDCHAR
STARTCHAR 007A
ENCODING 122
SWIDTH 411 0
DWIDTH 12 0
BBX 12 16 0 0
BITMAP
FFE0
FFE0
0060
00C0
01C0
0380
0300
0600
0E00
1C00
1800
3000
7000
6000
FFF0
FFF0
ENDCHAR
STARTCHAR 007B
ENCODING 123
SWIDTH 342 0
DWIDTH 10 0
BBX 8 28 2 -6
BITMAP
0F
0F
18
18
18
18
18
18
18
18
18
38
70
E0
E0
30
38
18
18
18
18
18
18
18
18
1C
0F
07
ENDCHAR
STARTCHAR 007C
ENCODING 124
SWIDTH 685 0
DWIDTH 20 0
BBX 2 29 9 -6
BITMAP
C0
C0
C0
C0
C0
C0
C0
C0
C0
C0
C0
C0
C0
C0
C0
C0
C0
C0
C0
C0
C0
C0
C0
C0
C0
C0
C0
C0
C0
ENDCHAR
STARTCHAR 007D
ENCODING 125
SWIDTH 342 0
DWIDTH 10 0
BBX 8 28 0 -6
BITMAP
F0
F8
18
18
18
18
18
18
18
18
18
1C
0E
07
07
0C
1C
18
18
18
18
18
18
18
18
18
F0
E0
ENDCHAR
STARTCHAR 007E
ENCODING 126
SWIDTH 617 0
DWIDTH 18 0
BBX 13 4 2 5
BITMAP
3C08
7F18
C3F8
00E0
ENDCHAR
STARTCHAR 00A0
ENCODING 160
SWIDTH 274 0
DWIDTH 8 0
BBX 0 0 0 0
BITMAP
ENDCHAR
STARTCHAR 00A3
ENCODING 163
SWIDTH 548 0
DWIDTH 16 0
BBX 16 22 0 0
BITMAP
07E0
0FF0
1838
300C
700E
6006
6000
6000
6000
7000
FFF0
FFF0
0C00
0600
0703
0303
0303
0303
0306
060E
7FFC
7FF0
ENDCHAR
STARTCHAR 00A4
ENCODING 164
SWIDTH 548 0
DWIDTH 16 0
BBX 15 15 1 2
BITMAP
C006
E38E
7FFC
3878
3018
701C
600C
600C
600C
600C
3018
3838
7FFC
E7CE
C006
ENDCHAR
STARTCHAR 00A6
ENCODING 166
SWIDTH 685 0
DWIDTH 20 0
BBX 2 25 9 -4
BITMAP
C0
C0
C0
C0
C0
C0
C0
C0
C0
C0
00
00
00
00
00
C0
C0
C0
C0
C0
C0
C0
C0
C0
C0
ENDCHAR
STARTCHAR 00A7
ENCODING 167
SWIDTH 617 0
DWIDTH 18 0
BBX 12 26 3 -4
BITMAP
0F80
3FC0
30E0
6060
6000
6000
7000
3800
7E00
6780
C1E0
C070
C030
E030
7830
3C30
0F60
03C0
01C0
0060
6060
6060
7060
30C0
1FC0
0F00
ENDCHAR
STARTCHAR 00A8
ENCODING 168
SWIDTH 377 0
DWIDTH 11 0
BBX 6 4 2 19
BITMAP
CC
CC
CC
CC
ENDCHAR
STARTCHAR 00A9
ENCODING 169
SWIDTH 754 0
DWIDTH 22 0
BBX 22 22 0 0
BITMAP
00FC00
03FF80
0E01C0
1800E0
307830
31FE38
638718
63031C
C6010C
C6000C
C6000C
C6000C
C6000C
C6010C
E3011C
638318
71FE38
307830
1C0060
0E01C0
07FF80
00FC00
ENDCHAR
STARTCHAR 00AB
ENCODING 171
SWIDTH 411 0
DWIDTH 12 0
BBX 10 12 1 2
BITMAP
1080
39C0
3180
7380
6300
E700
E700
6300
7380
3180
39C0
1080
ENDCHAR
STARTCHAR 00AC
ENCODING 172
SWIDTH 617 0
DWIDTH 18 0
BBX 15 8 1 2
BITMAP
FFFE
FFFE
0006
0006
0006
0006
0006
0006
ENDCHAR
STARTCHAR 00AD
ENCODING 173
SWIDTH 342 0
DWIDTH 10 0
BBX 8 2 1 7
BITMAP
FF
FF
ENDCHAR
STARTCHAR 00AE
ENCODING 174
SWIDTH 754 0
DWIDTH 22 0
BBX 22 22 0 0
BITMAP
00FC00
07FF80
0E01C0
180060
33F830
73FE38
630718
E3031C
C3030C
C3070C
C3FE0C
C3FE0C
C3070C
C3030C
630318
630318
330330
380070
1C0060
0E01C0
07FF00
00FC00
ENDCHAR
STARTCHAR 00B0
ENCODING 176
SWIDTH 411 0
DWIDTH 12 0
BBX 9 9 2 12
BITMAP
3E00
7F00
E380
C180
C180
C180
E300
7F00
1C00
ENDCHAR
STARTCHAR 00B1
ENCODING 177
SWIDTH 617 0
DWIDTH 18 0
BBX 14 16 2 0
BITMAP
0300
0300
0300
0300
0300
FFFC
FFFC
0300
0300
0300
0300
0300
0000
0000
FFFC
FFFC
ENDCHAR
STARTCHAR 00B4
ENCODING 180
SWIDTH 377 0
DWIDTH 11 0
BBX 7 5 2 18
BITMAP
04
1E
3C
F0
40
ENDCHAR
STARTCHAR 00B5
ENCODING 181
SWIDTH 617 0
DWIDTH 18 0
BBX 13 21 2 -5
BITMAP
C018
C018
C018
C018
C018
C018
C018
C018
C018
C018
C018
E038
E038
F078
DFD8
CF98
C000
C000
C000
C000
C000
ENDCHAR
STARTCHAR 00B6
ENCODING 182
SWIDTH 548 0
DWIDTH 16 0
BBX 15 25 1 -3
BITMAP
1FFE
7FFE
7F18
FF18
FF18
FF18
FF18
FF18
FF18
7F18
3F18
0318
0318
0318
0318
0318
0318
0318
0318
0318
0318
0318
0318
0318
0318
ENDCHAR
STARTCHAR 00B7
ENCODING 183
SWIDTH 274 0
DWIDTH 8 0
BBX 2 4 3 6
BITMAP
C0
C0
C0
C0
ENDCHAR
STARTCHAR 00B8
ENCODING 184
SWIDTH 308 0
DWIDTH 9 0
BBX 5 6 2 -7
BITMAP
20
40
78
08
C8
70
ENDCHAR
STARTCHAR 00BB
ENCODING 187
SWIDTH 411 0
DWIDTH 12 0
BBX 10 12 1 2
BITMAP
4200
E700
6300
7380
3180
39C0
39C0
3180
7380
6300
C700
4200
ENDCHAR
STARTCHAR 00C1
ENCODING 193
SWIDTH 754 0
DWIDTH 22 0
BBX 21 28 0 1
BITMAP
000800
003C00
00F000
00E000
008000
000000
007000
007000
00F800
00D800
01DC00
018C00
018C00
030E00
030600
070700
060300
0E0380
0C0380
0FFF80
1FFFC0
1800C0
3800E0
300060
700070
600030
600030
C00038
ENDCHAR
STARTCHAR 00C2
ENCODING 194
SWIDTH 754 0
DWIDTH 22 0
BBX 21 27 0 0
BITMAP
007000
00F800
01DC00
038E00
000000
007000
007000
00F800
00D800
01DC00
018C00
018C00
030E00
030600
070700
060300
0E0380
0C0380
0FFF80
1FFFC0
1800C0
3800E0
300060
700070
600030
600030
C00038
ENDCHAR
STARTCHAR 00C4
ENCODING 196
SWIDTH 754 0
DWIDTH 22 0
BBX 20 27 1 0
BITMAP
019800
019800
019800
019800
000000
006000
00F000
00F000
01F800
019800
019800
031C00
030C00
070E00
060600
060600
0E0700
0C0300
1FFF80
1FFF80
3801C0
3001C0
3000C0
7000E0
600060
E00070
C00030
ENDCHAR
STARTCHAR 00C7
ENCODING 199
SWIDTH 822 0
DWIDTH 24 0
BBX 21 28 1 -7
BITMAP
00FE00
03FF80
0F03E0
1C00F0
380038
300018
600000
600000
E00000
C00000
C00000
C00000
C00000
C00000
600000
600000
700018
380038
1C0070
0F81E0
03FF80
00FE00
002000
002000
007800
000400
004400
003800
ENDCHAR
STARTCHAR 00C9
ENCODING 201
SWIDTH 548 0
DWIDTH 16 0
BBX 12 28 2 1
BITMAP
0180
0780
0F00
1C00
1000
0000
FFF0
FFF0
C000
C000
C000
C000
C000
C000
C000
C000
FFE0
FFE0
C000
C000
C000
C000
C000
C000
C000
C000
FFF0
FFF0
ENDCHAR
STARTCHAR 00CB
ENCODING 203
SWIDTH 548 0
DWIDTH 16 0
BBX 12 27 2 0
BITMAP
1980
1980
1980
1980
0000
FFF0
FFF0
C000
C000
C000
C000
C000
C000
C000
C000
FFE0
FFE0
C000
C000
C000
C000
C000
C000
C000
C000
FFF0
FFF0
ENDCHAR
STARTCHAR 00CD
ENCODING 205
SWIDTH 240 0
DWIDTH 7 0
BBX 7 28 1 1
BITMAP
04
1E
78
E0
00
00
60
60
60
60
60
60
60
60
60
60
60
60
60
60
60
60
60
60
60
60
60
60
ENDCHAR
STARTCHAR 00CE
ENCODING 206
SWIDTH 240 0
DWIDTH 7 0
BBX 10 27 -2 0
BITMAP
0E00
1F00
7380
E1C0
0000
0C00
0C00
0C00
0C00
0C00
0C00
0C00
0C00
0C00
0C00
0C00
0C00
0C00
0C00
0C00
0C00
0C00
0C00
0C00
0C00
0C00
0C00
ENDCHAR
STARTCHAR 00D3
ENCODING 211
SWIDTH 857 0
DWIDTH 25 0
BBX 23 28 1 0
BITMAP
000100
000700
001E00
007C00
003000
000000
00FE00
03FF80
0F01E0
1C0070
380038
30001C
60000C
60000C
C00006
C00006
C00006
C00006
C00006
C00006
60000C
60000C
300018
380038
1C0070
0F01E0
03FF80
00FE00
ENDCHAR
STARTCHAR 00D4
ENCODING 212
SWIDTH 857 0
DWIDTH 25 0
BBX 23 27 1 0
BITMAP
003800
007C00
00EE00
01C300
000000
00FE00
03FF80
0F01E0
1C0070
380038
30001C
60000C
60000C
C00006
C00006
C00006
C00006
C00006
C00006
60000C
60000C
300018
380038
1C0070
0F01E0
03FF80
00FE00
ENDCHAR
STARTCHAR 00D5
ENCODING 213
SWIDTH 857 0
DWIDTH 25 0
BBX 23 27 1 0
BITMAP
01F100
01FF00
010F00
000000
000000
00FE00
03FF80
0F01E0
1C0070
380038
30001C
60000C
60000C
C00006
C00006
C00006
C00006
C00006
C00006
60000C
60000C
300018
380038
1C0070
0F01E0
03FF80
00FE00
ENDCHAR
STARTCHAR 00D6
ENCODING 214
SWIDTH 857 0
DWIDTH 25 0
BBX 23 27 1 0
BITMAP
00C600
00C600
00C600
00C600
000000
00FE00
03FF80
0F01E0
1C0070
380038
30001C
60000C
60000C
C00006
C00006
C00006
C00006
C00006
C00006
60000C
60000C
300018
380038
1C0070
0F01E0
03FF80
00FE00
ENDCHAR
STARTCHAR 00D7
ENCODING 215
SWIDTH 617 0
DWIDTH 18 0
BBX 13 13 2 1
BITMAP
4010
E038
7070
38E0
1DC0
0F80
0700
0F80
1DC0
38E0
7070
E038
4010
ENDCHAR
STARTCHAR 00DA
ENCODING 218
SWIDTH 651 0
DWIDTH 19 0
BBX 15 28 2 1
BITMAP
0020
00F0
03C0
0700
0000
0000
C006
C006
C006
C006
C006
C006
C006
C006
C006
C006
C006
C006
C006
C006
C006
C006
C006
600C
701C
3838
1FF0
07C0
ENDCHAR
STARTCHAR 00DC
ENCODING 220
SWIDTH 651 0
DWIDTH 19 0
BBX 15 27 2 0
BITMAP
0C60
0C60
0C60
0C60
0000
C006
C006
C006
C006
C006
C006
C006
C006
C006
C006
C006
C006
C006
C006
C006
C006
C006
600C
701C
3838
1FF0
07C0
ENDCHAR
STARTCHAR 00DD
ENCODING 221
SWIDTH 582 0
DWIDTH 17 0
BBX 16 28 1 1
BITMAP
0030
00F0
01E0
0380
0200
0000
C003
E007
6006
700E
300C
381C
1818
1C38
0C30
0E70
0660
07E0
03C0
03C0
0180
0180
0180
0180
0180
0180
0180
0180
ENDCHAR
STARTCHAR 00DF
ENCODING 223
SWIDTH 548 0
DWIDTH 16 0
BBX 13 22 2 0
BITMAP
0F80
3FC0
70E0
6070
C030
C030
C030
C030
C070
C0E0
C7C0
C7E0
C070
C038
C018
C018
F018
F018
F038
D870
DFE0
C7C0
ENDCHAR
STARTCHAR 00E1
ENCODING 225
SWIDTH 685 0
DWIDTH 20 0
BBX 17 23 1 0
BITMAP
001000
007000
00F000
03C000
030000
000000
000000
03F180
0FF980
3C1F80
300780
600380
E00380
C00180
C00180
C00180
C00180
E00380
600380
700780
3C0D80
1FF980
03E180
ENDCHAR
STARTCHAR 00E2
ENCODING 226
SWIDTH 685 0
DWIDTH 20 0
BBX 17 23 1 0
BITMAP
01C000
03E000
073800
0E1C00
000000
000000
000000
03F180
0FF980
3C1F80
300780
600380
E00380
C00180
C00180
C00180
C00180
E00380
600380
700780
3C0D80
1FF980
03E180
ENDCHAR
STARTCHAR 00E4
ENCODING 228
SWIDTH 685 0
DWIDTH 20 0
BBX 17 23 1 0
BITMAP
033000
033000
033000
033000
000000
000000
000000
03F180
0FFD80
3C0F80
300780
600380
E00380
C00180
C00180
C00180
C00180
E00180
600380
700780
3C0D80
0FF980
03E180
ENDCHAR
STARTCHAR 00E7
ENCODING 231
SWIDTH 651 0
DWIDTH 19 0
BBX 16 22 1 -7
BITMAP
03F0
0FFC
3C1E
3007
6003
E000
C000
C000
C000
C000
E000
6003
7007
3C0E
1FFC
07F0
0180
0100
01E0
0020
0320
01C0
ENDCHAR
STARTCHAR 00E9
ENCODING 233
SWIDTH 651 0
DWIDTH 19 0
BBX 16 22 1 1
BITMAP
0060
01E0
0780
0600
0000
0000
07E0
1FF8
381C
300E
6007
C003
C003
FFFF
FFFF
C000
C000
6007
7006
381C
1FF8
07E0
ENDCHAR
STARTCHAR 00EB
ENCODING 235
SWIDTH 651 0
DWIDTH 19 0
BBX 17 23 1 0
BITMAP
063000
063000
063000
063000
000000
000000
000000
03E000
0FF800
381E00
300600
600300
E00380
C00180
FFFF80
FFFF80
C00000
C00000
600300
700700
3C0E00
1FF800
03E000
ENDCHAR
STARTCHAR 00ED
ENCODING 237
SWIDTH 205 0
DWIDTH 6 0
BBX 7 23 1 0
BITMAP
04
1E
78
E0
40
00
00
60
60
60
60
60
60
60
60
60
60
60
60
60
60
60
60
ENDCHAR
STARTCHAR 00EE
ENCODING 238
SWIDTH 205 0
DWIDTH 6 0
BBX 10 23 -2 0
BITMAP
0E00
3F00
7380
E1C0
0000
0000
0000
0C00
0C00
0C00
0C00
0C00
0C00
0C00
0C00
0C00
0C00
0C00
0C00
0C00
0C00
0C00
0C00
ENDCHAR
STARTCHAR 00F3
ENCODING 243
SWIDTH 651 0
DWIDTH 19 0
BBX 17 22 1 1
BITMAP
003800
00F000
03C000
018000
000000
000000
03E000
0FF800
3C1E00
300700
600300
E00380
C00180
C00180
C00180
C00180
E00380
600300
700600
3C1E00
0FF800
03E000
ENDCHAR
STARTCHAR 00F4
ENCODING 244
SWIDTH 651 0
DWIDTH 19 0
BBX 17 23 1 0
BITMAP
01C000
03E000
077000
0C1800
000000
000000
000000
03E000
0FF800
3C1E00
300700
600300
E00380
C00180
C00180
C00180
C00180
E00380
600300
700600
3C1E00
0FF800
03E000
ENDCHAR
STARTCHAR 00F5
ENCODING 245
SWIDTH 651 0
DWIDTH 19 0
BBX 17 22 1 0
BITMAP
0F8800
1FF800
087800
000000
000000
000000
03E000
0FF800
3C1E00
300700
600300
E00380
C00180
C00180
C00180
C00180
E00380
600300
700600
3C1E00
0FF800
03E000
ENDCHAR
STARTCHAR 00F6
ENCODING 246
SWIDTH 651 0
DWIDTH 19 0
BBX 17 23 1 0
BITMAP
063000
063000
063000
063000
000000
000000
000000
03E000
0FF800
3C1E00
300700
600300
E00380
C00180
C00180
C00180
C00180
E00380
600300
700600
3C0E00
0FF800
03E000
ENDCHAR
STARTCHAR 00F7
ENCODING 247
SWIDTH 617 0
DWIDTH 18 0
BBX 14 16 2 0
BITMAP
0300
0300
0300
0300
0000
0000
0000
0000
FFFC
FFFC
0000
0000
0300
0300
0300
0300
ENDCHAR
STARTCHAR 00FA
ENCODING 250
SWIDTH 617 0
DWIDTH 18 0
BBX 14 23 2 0
BITMAP
0060
00E0
03C0
0700
0400
0000
0000
C00C
C00C
C00C
C00C
C00C
C00C
C00C
C00C
C00C
C00C
C00C
E01C
601C
703C
3FEC
0F8C
ENDCHAR
STARTCHAR 00FC
ENCODING 252
SWIDTH 617 0
DWIDTH 18 0
BBX 14 23 2 0
BITMAP
0CC0
0CC0
0CC0
0CC0
0000
0000
0000
C00C
C00C
C00C
C00C
C00C
C00C
C00C
C00C
C00C
C00C
C00C
E01C
601C
703C
3FEC
0F8C
ENDCHAR
STARTCHAR 00FD
ENCODING 253
SWIDTH 548 0
DWIDTH 16 0
BBX 15 29 0 -6
BITMAP
0020
00F0
03C0
0700
0200
0000
0000
C006
600C
600C
701C
3018
3038
1830
1830
1C60
0C60
0CE0
06C0
06C0
0780
0380
0300
0300
0300
0600
0600
0C00
0C00
ENDCHAR
STARTCHAR 0100
ENCODING 256
SWIDTH 754 0
DWIDTH 22 0
BBX 21 26 0 0
BITMAP
03FE00
03FE00
000000
000000
007000
007000
00F800
00D800
01DC00
018C00
018C00
030E00
030600
070700
060300
0E0380
0C0380
0FFF80
1FFFC0
1800C0
3800E0
300060
700070
600030
600030
C00038
ENDCHAR
STARTCHAR 0101
ENCODING 257
SWIDTH 685 0
DWIDTH 20 0
BBX 17 22 1 0
BITMAP
0FFC00
0FFC00
000000
000000
000000
000000
03F180
0FF980
3C1F80
300780
600380
E00380
C00180
C00180
C00180
C00180
E00380
600380
700780
3C0D80
1FF980
03E180
ENDCHAR
STARTCHAR 0102
ENCODING 258
SWIDTH 754 0
DWIDTH 22 0
BBX 21 27 0 1
BITMAP
030600
03FE00
00F800
000000
000000
007000
007000
00F800
00D800
01DC00
018C00
018C00
030E00
030600
070700
060300
0E0380
0C0380
0FFF80
1FFFC0
1800C0
3800E0
300060
700070
600030
600030
C00038
ENDCHAR
STARTCHAR 0103
ENCODING 259
SWIDTH 685 0
DWIDTH 20 0
BBX 17 22 1 0
BITMAP
0C0C00
07F800
03F000
000000
000000
000000
03F180
0FF980
3C1F80
300780
600380
E00380
C00180
C00180
C00180
C00180
E00380
600380
700780
3C0D80
1FF980
03E180
ENDCHAR
STARTCHAR 0104
ENCODING 260
SWIDTH 754 0
DWIDTH 22 0
BBX 21 28 0 -6
BITMAP
007000
007000
00F800
00D800
01D800
018C00
038C00
030E00
030600
070700
060300
0E0300
0C0380
0FFF80
1FFFC0
1800C0
3800C0
3000E0
700060
600070
600030
C00030
000020
000060
000040
000040
000060
000038
ENDCHAR
STARTCHAR 0105
ENCODING 261
SWIDTH 685 0
DWIDTH 20 0
BBX 17 22 1 -6
BITMAP
03F180
0FF980
3C0D80
300780
600380
E00380
C00180
C00180
C00180
C00180
E00180
600380
700780
3C0D80
0FF980
03E180
000300
000600
000400
000400
000600
000380
ENDCHAR
STARTCHAR 0106
ENCODING 262
SWIDTH 822 0
DWIDTH 24 0
BBX 21 28 1 0
BITMAP
000200
000700
001E00
007800
002000
000000
00FC00
03FF80
0F03C0
1C00E0
380070
300038
600000
600000
E00000
C00000
C00000
C00000
C00000
C00000
600000
600000
700038
380030
1C00E0
0F03C0
07FF80
00FC00
ENDCHAR
STARTCHAR 0107
ENCODING 263
SWIDTH 651 0
DWIDTH 19 0
BBX 16 22 1 1
BITMAP
0060
01E0
0780
0200
0000
0000
03F0
0FFC
3C0E
3007
6003
E000
C000
C000
C000
C000
E000
6003
7007
3C0E
0FFC
03F0
ENDCHAR
STARTCHAR 010C
ENCODING 268
SWIDTH 822 0
DWIDTH 24 0
BBX 21 27 1 0
BITMAP
01C300
00EE00
007C00
003800
000000
00FC00
03FF80
0F03C0
1C00E0
380070
300038
600000
600000
E00000
C00000
C00000
C00000
C00000
C00000
600000
600000
700038
380030
1C00E0
0F03C0
07FF80
00FC00
ENDCHAR
STARTCHAR 010D
ENCODING 269
SWIDTH 651 0
DWIDTH 19 0
BBX 16 23 1 0
BITMAP
1C38
0E70
03E0
01C0
0000
0000
0000
03F0
0FFC
3C0E
3007
6003
E000
C000
C000
C000
C000
E000
6003
7007
3C0E
0FFC
03F0
ENDCHAR
STARTCHAR 010E
ENCODING 270
SWIDTH 754 0
DWIDTH 22 0
BBX 18 27 2 0
BITMAP
386000
1CC000
0F8000
070000
000000
FFC000
FFF800
C03C00
C00E00
C00700
C00380
C00180
C001C0
C000C0
C000C0
C000C0
C000C0
C000C0
C000C0
C00180
C00180
C00380
C00700
C00E00
C03C00
FFF800
FFC000
ENDCHAR
STARTCHAR 010F
ENCODING 271
SWIDTH 754 0
DWIDTH 22 0
BBX 22 22 1 0
BITMAP
00018C
000198
000198
000198
0001B0
000180
03E180
0FF980
3C1F80
300780
600380
E00380
C00180
C00180
C00180
C00180
E00380
600380
700780
3C0D80
1FF980
03E180
ENDCHAR
STARTCHAR 0110
ENCODING 272
SWIDTH 788 0
DWIDTH 23 0
BBX 20 22 1 0
BITMAP
3FF000
3FFE00
300F00
300380
3001C0
3000E0
300060
300060
300030
300030
FFC030
FFC030
300030
300030
300070
300060
3000E0
3000C0
300380
300F00
3FFE00
3FF000
ENDCHAR
STARTCHAR 0111
ENCODING 273
SWIDTH 685 0
DWIDTH 20 0
BBX 19 22 1 0
BITMAP
000180
000180
000180
001FE0
000180
000180
03E180
0FF980
3C1F80
300780
600380
E00380
C00180
C00180
C00180
C00180
E00380
600380
700780
3C0D80
1FF980
03E180
ENDCHAR
STARTCHAR 0112
ENCODING 274
SWIDTH 548 0
DWIDTH 16 0
BBX 12 26 2 0
BITMAP
7FE0
7FE0
0000
0000
FFF0
FFF0
C000
C000
C000
C000
C000
C000
C000
C000
FFE0
FFE0
C000
C000
C000
C000
C000
C000
C000
C000
FFF0
FFF0
ENDCHAR
STARTCHAR 0113
ENCODING 275
SWIDTH 651 0
DWIDTH 19 0
BBX 16 22 1 0
BITMAP
1FF8
1FF8
0000
0000
0000
0000
07E0
1FF8
381C
300E
6007
C003
C003
FFFF
FFFF
C000
C000
6007
7006
381C
1FF8
07E0
ENDCHAR
STARTCHAR 0116
ENCODING 278
SWIDTH 548 0
DWIDTH 16 0
BBX 12 27 2 0
BITMAP
0600
0600
0600
0600
0000
FFF0
FFF0
C000
C000
C000
C000
C000
C000
C000
C000
FFF0
FFF0
C000
C000
C000
C000
C000
C000
C000
C000
FFF0
FFF0
ENDCHAR
STARTCHAR 0117
ENCODING 279
SWIDTH 651 0
DWIDTH 19 0
BBX 16 23 1 0
BITMAP
0180
0180
0180
0180
0000
0000
0000
07E0
1FF8
381C
700E
6006
C003
C003
FFFF
FFFF
C000
C000
6006
700E
381C
1FF8
07E0
ENDCHAR
STARTCHAR 0118
ENCODING 280
SWIDTH 548 0
DWIDTH 16 0
BBX 11 28 2 -6
BITMAP
FFE0
FFE0
C000
C000
C000
C000
C000
C000
C000
C000
FFE0
FFE0
C000
C000
C000
C000
C000
C000
C000
C000
FFE0
FFE0
00C0
0180
0100
0100
0180
00E0
ENDCHAR
STARTCHAR 0119
ENCODING 281
SWIDTH 651 0
DWIDTH 19 0
BBX 17 22 1 -6
BITMAP
07E000
0FF800
381C00
300600
600700
E00300
C00300
FFFF80
FFFF80
C00000
C00000
600300
700600
381C00
1FF800
07F000
00C000
018000
010000
010000
018000
00E000
ENDCHAR
STARTCHAR 011A
ENCODING 282
SWIDTH 548 0
DWIDTH 16 0
BBX 12 27 2 0
BITMAP
70C0
3B80
1F00
0E00
0000
FFF0
FFF0
C000
C000
C000
C000
C000
C000
C000
C000
FFE0
FFE0
C000
C000
C000
C000
C000
C000
C000
C000
FFF0
FFF0
ENDCHAR
STARTCHAR 011B
ENCODING 283
SWIDTH 651 0
DWIDTH 19 0
BBX 16 23 1 0
BITMAP
1C38
0E70
07E0
01C0
0000
0000
0000
07E0
1FF8
381C
300E
6007
C003
C003
FFFF
FFFF
C000
C000
6007
7006
381C
1FF8
07E0
ENDCHAR
STARTCHAR 0122
ENCODING 290
SWIDTH 857 0
DWIDTH 25 0
BBX 23 28 1 -6
BITMAP
00FE00
03FF80
0F03E0
1C0070
380038
300018
600000
600000
E00000
C00000
C00000
C00000
C0FFFE
C0FFFE
60000C
60000C
70001C
380038
1C0070
0F01E0
03FF80
00FE00
000000
001000
003000
003000
006000
006000
ENDCHAR
STARTCHAR 0123
ENCODING 291
SWIDTH 685 0
DWIDTH 20 0
BBX 17 29 1 -6
BITMAP
006000
00C000
00C000
018000
018000
000000
000000
03E180
0FF980
3C1D80
300780
600380
E00380
C00180
C00180
C00180
C00180
E00380
600380
700780
3C0D80
0FF980
03E180
600180
700300
380700
1C0E00
0FFC00
03F000
ENDCHAR
STARTCHAR 012A
ENCODING 298
SWIDTH 240 0
DWIDTH 7 0
BBX 8 26 -1 0
BITMAP
FF
FF
00
00
18
18
18
18
18
18
18
18
18
18
18
18
18
18
18
18
18
18
18
18
18
18
ENDCHAR
STARTCHAR 012B
ENCODING 299
SWIDTH 205 0
DWIDTH 6 0
BBX 8 22 -1 0
BITMAP
FF
FF
00
00
00
00
18
18
18
18
18
18
18
18
18
18
18
18
18
18
18
18
ENDCHAR
STARTCHAR 012E
ENCODING 302
SWIDTH 240 0
DWIDTH 7 0
BBX 4 28 1 -6
BITMAP
60
60
60
60
60
60
60
60
60
60
60
60
60
60
60
60
60
60
60
60
60
60
40
80
80
80
D0
70
ENDCHAR
STARTCHAR 012F
ENCODING 303
SWIDTH 205 0
DWIDTH 6 0
BBX 5 28 0 -6
BITMAP
30
30
30
30
00
00
30
30
30
30
30
30
30
30
30
30
30
30
30
30
30
30
60
C0
80
80
E0
78
ENDCHAR
STARTCHAR 0136
ENCODING 310
SWIDTH 582 0
DWIDTH 17 0
BBX 14 28 2 -6
BITMAP
C00C
C01C
C038
C070
C0E0
C0C0
C1C0
C380
C700
C600
CC00
DE00
FF00
F300
E380
C1C0
C0E0
C060
C070
C038
C01C
C00C
0000
0600
0600
0C00
0C00
1800
ENDCHAR
STARTCHAR 0137
ENCODING 311
SWIDTH 514 0
DWIDTH 15 0
BBX 12 28 2 -6
BITMAP
C000
C000
C000
C000
C000
C000
C070
C0E0
C0C0
C180
C380
C700
C600
CC00
DC00
FE00
F700
E380
C1C0
C0C0
C060
C070
0000
0C00
0C00
1800
1800
1000
ENDCHAR
STARTCHAR 0139
ENCODING 313
SWIDTH 445 0
DWIDTH 13 0
BBX 11 28 2 1
BITMAP
0200
0F00
3C00
7000
2000
0000
C000
C000
C000
C000
C000
C000
C000
C000
C000
C000
C000
C000
C000
C000
C000
C000
C000
C000
C000
C000
FFE0
FFE0
ENDCHAR
STARTCHAR 013A
ENCODING 314
SWIDTH 205 0
DWIDTH 6 0
BBX 6 28 1 1
BITMAP
0C
1C
78
E0
80
00
60
60
60
60
60
60
60
60
60
60
60
60
60
60
60
60
60
60
60
60
60
60
ENDCHAR
STARTCHAR 013B
ENCODING 315
SWIDTH 445 0
DWIDTH 13 0
BBX 11 28 2 -6
BITMAP
C000
C000
C000
C000
C000
C000
C000
C000
C000
C000
C000
C000
C000
C000
C000
C000
C000
C000
C000
C000
FFE0
FFE0
0000
0C00
0C00
1800
1800
3000
ENDCHAR
STARTCHAR 013C
ENCODING 316
SWIDTH 205 0
DWIDTH 6 0
BBX 4 28 0 -6
BITMAP
30
30
30
30
30
30
30
30
30
30
30
30
30
30
30
30
30
30
30
30
30
30
00
30
30
60
60
C0
ENDCHAR
STARTCHAR 013D
ENCODING 317
SWIDTH 445 0
DWIDTH 13 0
BBX 11 22 2 0
BITMAP
C060
C0C0
C0C0
C180
C180
C000
C000
C000
C000
C000
C000
C000
C000
C000
C000
C000
C000
C000
C000
C000
FFE0
FFE0
ENDCHAR
STARTCHAR 013E
ENCODING 318
SWIDTH 274 0
DWIDTH 8 0
BBX 7 22 2 0
BITMAP
C6
CC
CC
C8
D8
C0
C0
C0
C0
C0
C0
C0
C0
C0
C0
C0
C0
C0
C0
C0
C0
C0
ENDCHAR
STARTCHAR 0141
ENCODING 321
SWIDTH 514 0
DWIDTH 15 0
BBX 13 22 2 0
BITMAP
3000
3000
3000
3000
3000
3000
3080
3380
3700
3E00
3800
7000
F000
B000
3000
3000
3000
3000
3000
3000
3FF8
3FF8
ENDCHAR
STARTCHAR 0142
ENCODING 322
SWIDTH 308 0
DWIDTH 9 0
BBX 6 22 1 0
BITMAP
30
30
30
30
30
30
30
34
3C
38
70
F0
B0
30
30
30
30
30
30
30
30
30
ENDCHAR
STARTCHAR 0143
ENCODING 323
SWIDTH 754 0
DWIDTH 22 0
BBX 17 28 2 1
BITMAP
001000
007800
01E000
038000
000000
000000
E00180
F00180
F80180
D80180
DC0180
CC0180
C60180
C70180
C30180
C18180
C1C180
C0C180
C06180
C07180
C03180
C01980
C01D80
C00D80
C00780
C00780
C00380
C00180
ENDCHAR
STARTCHAR 0144
ENCODING 324
SWIDTH 617 0
DWIDTH 18 0
BBX 14 22 2 1
BITMAP
00E0
03C0
0780
0600
0000
0000
CFC0
DFF0
F078
E018
E01C
C00C
C00C
C00C
C00C
C00C
C00C
C00C
C00C
C00C
C00C
C00C
ENDCHAR
STARTCHAR 0145
ENCODING 325
SWIDTH 754 0
DWIDTH 22 0
BBX 17 28 2 -6
BITMAP
E00180
F00180
F80180
D80180
DC0180
CC0180
C60180
C70180
C30180
C18180
C1C180
C0C180
C06180
C07180
C03180
C01980
C01D80
C00D80
C00780
C00780
C00380
C00180
000000
00C000
018000
018000
030000
030000
ENDCHAR
STARTCHAR 0146
ENCODING 326
SWIDTH 617 0
DWIDTH 18 0
BBX 14 22 2 -6
BITMAP
CFC0
DFF0
F078
E018
E01C
C00C
C00C
C00C
C00C
C00C
C00C
C00C
C00C
C00C
C00C
C00C
0000
0300
0300
0600
0600
0C00
ENDCHAR
STARTCHAR 0147
ENCODING 327
SWIDTH 754 0
DWIDTH 22 0
BBX 17 27 2 0
BITMAP
0C3800
067000
03E000
01C000
000000
E00180
F00180
F80180
D80180
DC0180
CC0180
C60180
C70180
C30180
C18180
C1C180
C0C180
C06180
C07180
C03180
C01980
C01D80
C00D80
C00780
C00780
C00380
C00180
ENDCHAR
STARTCHAR 0148
ENCODING 328
SWIDTH 617 0
DWIDTH 18 0
BBX 14 23 2 0
BITMAP
3860
1CC0
0F80
0700
0000
0000
0000
CFC0
DFF0
F078
E018
E01C
C00C
C00C
C00C
C00C
C00C
C00C
C00C
C00C
C00C
C00C
C00C
ENDCHAR
STARTCHAR 014C
ENCODING 332
SWIDTH 857 0
DWIDTH 25 0
BBX 23 26 1 0
BITMAP
03FF80
03FF80
000000
000000
00FE00
03FF80
0F01E0
1C0070
380038
30001C
60000C
60000C
C00006
C00006
C00006
C00006
C00006
C00006
60000C
60000C
300018
380038
1C0070
0F01E0
03FF80
00FE00
ENDCHAR
STARTCHAR 014D
ENCODING 333
SWIDTH 651 0
DWIDTH 19 0
BBX 17 22 1 0
BITMAP
1FFC00
1FFC00
000000
000000
000000
000000
03E000
0FF800
3C1E00
300700
600300
E00380
C00180
C00180
C00180
C00180
E00380
600300
700600
3C1E00
0FF800
03E000
ENDCHAR
STARTCHAR 0150
ENCODING 336
SWIDTH 857 0
DWIDTH 25 0
BBX 23 28 1 0
BITMAP
000020
000C60
0038C0
007380
006300
004000
00FE00
03FF80
0F01E0
1C0070
380038
30001C
60000C
60000C
C00006
C00006
C00006
C00006
C00006
C00006
60000C
60000C
300018
380038
1C0070
0F01E0
03FF80
00FE00
ENDCHAR
STARTCHAR 0151
ENCODING 337
SWIDTH 651 0
DWIDTH 19 0
BBX 17 23 1 0
BITMAP
004000
00E700
01CE00
039C00
063800
000000
000000
03E000
0FF800
3C1E00
300700
600300
E00380
C00180
C00180
C00180
C00180
E00380
600300
700600
3C1E00
0FF800
03E000
ENDCHAR
STARTCHAR 0154
ENCODING 340
SWIDTH 617 0
DWIDTH 18 0
BBX 15 28 2 1
BITMAP
0040
01E0
0780
0E00
0800
0000
FFC0
FFF0
C038
C01C
C00E
C006
C006
C006
C006
C00E
C00C
C03C
C7F8
C7E0
C380
C1C0
C0C0
C0E0
C070
C038
C01C
C00C
ENDCHAR
STARTCHAR 0155
ENCODING 341
SWIDTH 308 0
DWIDTH 9 0
BBX 7 22 2 1
BITMAP
06
1E
78
60
00
00
CE
DE
F8
E0
E0
C0
C0
C0
C0
C0
C0
C0
C0
C0
C0
C0
ENDCHAR
STARTCHAR 0156
ENCODING 342
SWIDTH 617 0
DWIDTH 18 0
BBX 15 28 2 -6
BITMAP
FFC0
FFF0
C038
C01C
C00E
C006
C006
C006
C006
C00E
C00C
C03C
C7F8
C7E0
C380
C1C0
C0C0
C0E0
C070
C038
C01C
C00C
0000
0300
0300
0600
0600
0C00
ENDCHAR
STARTCHAR 0157
ENCODING 343
SWIDTH 308 0
DWIDTH 9 0
BBX 8 22 1 -6
BITMAP
67
6F
7C
70
70
60
60
60
60
60
60
60
60
60
60
60
00
60
60
C0
C0
80
ENDCHAR
STARTCHAR 0158
ENCODING 344
SWIDTH 617 0
DWIDTH 18 0
BBX 15 27 2 0
BITMAP
3870
1CE0
0FC0
0700
0000
FFC0
FFF0
C038
C01C
C00E
C006
C006
C006
C006
C00E
C00C
C03C
C7F8
C7E0
C380
C1C0
C0C0
C0E0
C070
C038
C01C
C00C
ENDCHAR
STARTCHAR 0159
ENCODING 345
SWIDTH 308 0
DWIDTH 9 0
BBX 10 23 0 0
BITMAP
E1C0
3380
1F00
0E00
0000
0000
0000
3380
3780
3E00
3800
3800
3000
3000
3000
3000
3000
3000
3000
3000
3000
3000
3000
ENDCHAR
STARTCHAR 015A
ENCODING 346
SWIDTH 514 0
DWIDTH 15 0
BBX 13 28 0 0
BITMAP
0040
01C0
03C0
0F00
0C00
0000
07C0
1FE0
3870
3038
6018
6018
6000
7000
3800
3E00
0FC0
01E0
0070
0038
0018
0018
E018
6018
7030
3870
1FE0
0F80
ENDCHAR
STARTCHAR 015B
ENCODING 347
SWIDTH 377 0
DWIDTH 11 0
BBX 10 23 1 0
BITMAP
0100
0300
0F00
3C00
3000
0000
0000
3E00
7F00
E380
C180
C000
E000
7800
3F00
0780
01C0
00C0
C0C0
C0C0
E180
7F80
3E00
ENDCHAR
STARTCHAR 0160
ENCODING 352
SWIDTH 514 0
DWIDTH 15 0
BBX 13 27 0 0
BITMAP
3860
1CC0
0F80
0700
0000
07C0
1FE0
3870
3038
6018
6018
6000
7000
3800
3E00
0FC0
01E0
0070
0038
0018
0018
E018
6018
7030
3870
1FE0
0F80
ENDCHAR
STARTCHAR 0161
ENCODING 353
SWIDTH 377 0
DWIDTH 11 0
BBX 10 23 1 0
BITMAP
E180
7700
3E00
1C00
0000
0000
0000
3E00
7F00
E380
C180
C000
E000
7800
3F00
0780
01C0
00C0
C0C0
C0C0
E180
7F80
3E00
ENDCHAR
STARTCHAR 0162
ENCODING 354
SWIDTH 411 0
DWIDTH 12 0
BBX 12 28 0 -6
BITMAP
FFF0
FFF0
0600
0600
0600
0600
0600
0600
0600
0600
0600
0600
0600
0600
0600
0600
0600
0600
0600
0600
0600
0600
0000
0600
0600
0C00
0C00
1800
ENDCHAR
STARTCHAR 0163
ENCODING 355
SWIDTH 342 0
DWIDTH 10 0
BBX 9 28 1 -6
BITMAP
1800
1800
1800
1800
1800
1800
FF80
FF80
1800
1800
1800
1800
1800
1800
1800
1800
1800
1800
1800
1800
1800
1800
0000
1800
1800
3000
3000
6000
ENDCHAR
STARTCHAR 0164
ENCODING 356
SWIDTH 411 0
DWIDTH 12 0
BBX 12 27 0 0
BITMAP
70C0
3980
1F00
0E00
0000
FFF0
FFF0
0600
0600
0600
0600
0600
0600
0600
0600
0600
0600
0600
0600
0600
0600
0600
0600
0600
0600
0600
0600
ENDCHAR
STARTCHAR 0165
ENCODING 357
SWIDTH 342 0
DWIDTH 10 0
BBX 10 23 1 0
BITMAP
00C0
18C0
1880
1980
1980
1800
1800
FF80
FF80
1800
1800
1800
1800
1800
1800
1800
1800
1800
1800
1800
1800
1800
1800
ENDCHAR
STARTCHAR 016A
ENCODING 362
SWIDTH 651 0
DWIDTH 19 0
BBX 15 26 2 0
BITMAP
3FF8
3FF8
0000
0000
C006
C006
C006
C006
C006
C006
C006
C006
C006
C006
C006
C006
C006
C006
C006
C006
C006
600C
701C
3838
1FF0
07C0
ENDCHAR
STARTCHAR 016B
ENCODING 363
SWIDTH 617 0
DWIDTH 18 0
BBX 14 22 2 0
BITMAP
3FF0
3FF0
0000
0000
0000
0000
C00C
C00C
C00C
C00C
C00C
C00C
C00C
C00C
C00C
C00C
C00C
E01C
601C
703C
3FEC
0F8C
ENDCHAR
STARTCHAR 016E
ENCODING 366
SWIDTH 651 0
DWIDTH 19 0
BBX 15 28 2 0
BITMAP
03C0
07E0
0660
0660
07E0
03C0
C006
C006
C006
C006
C006
C006
C006
C006
C006
C006
C006
C006
C006
C006
C006
C006
E006
600C
700C
3838
1FF0
07E0
ENDCHAR
STARTCHAR 016F
ENCODING 367
SWIDTH 617 0
DWIDTH 18 0
BBX 14 24 2 0
BITMAP
0380
07C0
0CC0
0CC0
0CC0
0780
0300
0000
C00C
C00C
C00C
C00C
C00C
C00C
C00C
C00C
C00C
C00C
C00C
E01C
601C
703C
3FEC
0F8C
ENDCHAR
STARTCHAR 0170
ENCODING 368
SWIDTH 651 0
DWIDTH 19 0
BBX 15 28 2 1
BITMAP
0184
039C
0738
1C70
0840
0000
C006
C006
C006
C006
C006
C006
C006
C006
C006
C006
C006
C006
C006
C006
C006
C006
C006
600C
701C
3838
1FF0
07C0
ENDCHAR
STARTCHAR 0171
ENCODING 369
SWIDTH 617 0
DWIDTH 18 0
BBX 14 23 2 0
BITMAP
0108
039C
0E38
1CE0
18C0
0000
0000
C00C
C00C
C00C
C00C
C00C
C00C
C00C
C00C
C00C
C00C
C00C
E01C
601C
703C
3FEC
0F8C
ENDCHAR
STARTCHAR 0172
ENCODING 370
SWIDTH 651 0
DWIDTH 19 0
BBX 15 28 2 -6
BITMAP
C006
C006
C006
C006
C006
C006
C006
C006
C006
C006
C006
C006
C006
C006
C006
C006
C006
600C
701C
3838
1FF0
07E0
0180
0300
0200
0200
0320
01E0
ENDCHAR
STARTCHAR 0173
ENCODING 371
SWIDTH 617 0
DWIDTH 18 0
BBX 15 22 2 -6
BITMAP
C00C
C00C
C00C
C00C
C00C
C00C
C00C
C00C
C00C
C00C
C00C
E01C
601C
703C
3FEC
0F8C
0018
0030
0020
0020
0032
001E
ENDCHAR
STARTCHAR 0179
ENCODING 377
SWIDTH 480 0
DWIDTH 14 0
BBX 13 28 0 1
BITMAP
0080
03C0
0F00
0E00
0800
0000
FFF8
FFF8
0038
0070
0060
00E0
00C0
01C0
0180
0380
0700
0600
0E00
0C00
1C00
1800
3000
7000
6000
E000
FFF8
FFF8
ENDCHAR
STARTCHAR 017A
ENCODING 378
SWIDTH 411 0
DWIDTH 12 0
BBX 12 23 0 0
BITMAP
0080
0380
0F00
1C00
1000
0000
0000
FFE0
FFE0
00E0
00C0
01C0
0380
0300
0600
0E00
1C00
1800
3000
7000
6000
FFF0
FFF0
ENDCHAR
STARTCHAR 017B
ENCODING 379
SWIDTH 480 0
DWIDTH 14 0
BBX 14 27 0 0
BITMAP
0300
0300
0300
0300
0000
7FF8
7FF8
0018
0030
0070
0060
00E0
00C0
01C0
0180
0300
0700
0600
0E00
0C00
1800
3800
3000
7000
6000
FFFC
FFFC
ENDCHAR
STARTCHAR 017C
ENCODING 380
SWIDTH 411 0
DWIDTH 12 0
BBX 12 23 0 0
BITMAP
0600
0600
0600
0600
0000
0000
0000
FFE0
FFE0
00E0
00C0
0180
0380
0300
0600
0E00
1C00
1800
3800
7000
6000
FFF0
FFF0
ENDCHAR
STARTCHAR 017D
ENCODING 381
SWIDTH 480 0
DWIDTH 14 0
BBX 13 27 0 0
BITMAP
30E0
19C0
0F80
0700
0000
FFF8
FFF8
0038
0070
0060
00E0
00C0
01C0
0180
0380
0700
0600
0E00
0C00
1C00
1800
3000
7000
6000
E000
FFF8
FFF8
ENDCHAR
STARTCHAR 017E
ENCODING 382
SWIDTH 411 0
DWIDTH 12 0
BBX 12 23 0 0
BITMAP
70E0
39C0
1F00
0E00
0000
0000
0000
FFE0
FFE0
0060
00C0
01C0
0380
0300
0600
0E00
1C00
1800
3000
7000
6000
FFF0
FFF0
ENDCHAR
STARTCHAR 0218
ENCODING 536
SWIDTH 514 0
DWIDTH 15 0
BBX 13 28 0 -6
BITMAP
07C0
1FE0
3870
3038
6018
6018
6000
7000
3800
3E00
0FC0
01E0
0070
0038
0018
0018
E018
6018
7030
3870
1FE0
0F80
0000
0300
0300
0600
0600
0C00
ENDCHAR
STARTCHAR 0219
ENCODING 537
SWIDTH 377 0
DWIDTH 11 0
BBX 10 22 1 -6
BITMAP
3E00
7F00
E380
C180
C000
E000
7800
3F00
0780
01C0
00C0
C0C0
C0C0
E180
7F80
3E00
0000
0C00
1800
1800
1000
3000
ENDCHAR
STARTCHAR 021A
ENCODING 538
SWIDTH 411 0
DWIDTH 12 0
BBX 12 28 0 -6
BITMAP
FFF0
FFF0
0600
0600
0600
0600
0600
0600
0600
0600
0600
0600
0600
0600
0600
0600
0600
0600
0600
0600
0600
0600
0000
0600
0600
0C00
0C00
1800
ENDCHAR
STARTCHAR 021B
ENCODING 539
SWIDTH 342 0
DWIDTH 10 0
BBX 9 28 1 -6
BITMAP
1800
1800
1800
1800
1800
1800
FF80
FF80
1800
1800
1800
1800
1800
1800
1800
1800
1800
1800
1800
1800
1800
1800
0000
1800
1800
3000
3000
6000
ENDCHAR
STARTCHAR 02C7
ENCODING 711
SWIDTH 514 0
DWIDTH 15 0
BBX 9 4 3 19
BITMAP
C380
6600
3C00
1800
ENDCHAR
STARTCHAR 02D8
ENCODING 728
SWIDTH 445 0
DWIDTH 13 0
BBX 10 3 2 19
BITMAP
C0C0
7F80
3F00
ENDCHAR
STARTCHAR 02D9
ENCODING 729
SWIDTH 205 0
DWIDTH 6 0
BBX 2 4 2 19
BITMAP
C0
C0
C0
C0
ENDCHAR
STARTCHAR 02DB
ENCODING 731
SWIDTH 308 0
DWIDTH 9 0
BBX 4 6 2 -5
BITMAP
60
C0
80
80
C0
70
ENDCHAR
STARTCHAR 02DD
ENCODING 733
SWIDTH 548 0
DWIDTH 16 0
BBX 11 5 3 17
BITMAP
0840
1CE0
31C0
6300
C200
ENDCHAR
STARTCHAR 0394
ENCODING 916
SWIDTH 617 0
DWIDTH 18 0
BBX 18 20 0 1
BITMAP
004000
004000
00E000
00E000
01F000
017000
037000
023800
063800
043C00
041C00
081C00
080E00
100E00
100700
200700
200700
400380
400380
FFFFC0
ENDCHAR
STARTCHAR 03BC
ENCODING 956
SWIDTH 617 0
DWIDTH 18 0
BBX 13 21 2 -5
BITMAP
C018
C018
C018
C018
C018
C018
C018
C018
C018
C018
C018
E038
E038
F078
DFD8
CF98
C000
C000
C000
C000
C000
ENDCHAR
STARTCHAR 2013
ENCODING 8211
SWIDTH 514 0
DWIDTH 15 0
BBX 13 2 1 7
BITMAP
FFF8
FFF8
ENDCHAR
STARTCHAR 2014
ENCODING 8212
SWIDTH 994 0
DWIDTH 29 0
BBX 27 2 1 7
BITMAP
FFFFFFE0
FFFFFFE0
ENDCHAR
STARTCHAR 2018
ENCODING 8216
SWIDTH 342 0
DWIDTH 10 0
BBX 5 6 3 16
BITMAP
E0
60
60
30
30
18
ENDCHAR
STARTCHAR 2019
ENCODING 8217
SWIDTH 342 0
DWIDTH 10 0
BBX 5 6 3 16
BITMAP
18
30
30
60
60
E0
ENDCHAR
STARTCHAR 201A
ENCODING 8218
SWIDTH 342 0
DWIDTH 10 0
BBX 5 6 3 -2
BITMAP
18
30
30
70
60
E0
ENDCHAR
STARTCHAR 201C
ENCODING 8220
SWIDTH 514 0
DWIDTH 15 0
BBX 9 6 3 16
BITMAP
C600
6600
6700
3300
3300
3980
ENDCHAR
STARTCHAR 201D
ENCODING 8221
SWIDTH 480 0
DWIDTH 14 0
BBX 9 6 3 16
BITMAP
3180
3300
7300
6600
6600
CE00
ENDCHAR
STARTCHAR 201E
ENCODING 8222
SWIDTH 514 0
DWIDTH 15 0
BBX 9 6 3 -2
BITMAP
3980
3300
7300
6700
6600
CE00
ENDCHAR
STARTCHAR 2020
ENCODING 8224
SWIDTH 548 0
DWIDTH 16 0
BBX 12 26 2 -4
BITMAP
0600
0600
0600
0600
0600
0600
FFF0
FFF0
0600
0600
0600
0600
0600
0600
0600
0600
0600
0600
0600
0600
0600
0600
0600
0600
0600
0600
ENDCHAR
STARTCHAR 2021
ENCODING 8225
SWIDTH 548 0
DWIDTH 16 0
BBX 12 26 2 -4
BITMAP
0600
0600
0600
0600
0600
0600
FFF0
FFF0
0600
0600
0600
0600
0600
0600
0600
0600
0600
0600
FFF0
FFF0
0600
0600
0600
0600
0600
0600
ENDCHAR
STARTCHAR 2022
ENCODING 8226
SWIDTH 617 0
DWIDTH 18 0
BBX 9 9 4 7
BITMAP
1E00
7F00
7F80
FF80
FF80
FF80
FF80
7F00
3E00
ENDCHAR
STARTCHAR 2026
ENCODING 8230
SWIDTH 994 0
DWIDTH 29 0
BBX 21 4 4 0
BITMAP
C03018
C03018
C03018
C03018
ENDCHAR
STARTCHAR 2030
ENCODING 8240
SWIDTH 1165 0
DWIDTH 34 0
BBX 33 22 1 0
BITMAP
1F01800000
3F81800000
60C3000000
C063000000
C066000000
C064000000
C06C000000
E0E8000000
71D8000000
3F90000000
0E30000000
0061801000
0067E0FE00
00CC71C700
00DC3B8380
01981B0180
01981B0180
03181B0180
02181B8180
060C318300
0C0FF0FE00
0C03C07C00
ENDCHAR
STARTCHAR 2039
ENCODING 8249
SWIDTH 240 0
DWIDTH 7 0
BBX 5 12 1 2
BITMAP
10
38
30
70
60
E0
E0
60
70
30
38
10
ENDCHAR
STARTCHAR 203A
ENCODING 8250
SWIDTH 240 0
DWIDTH 7 0
BBX 5 12 1 2
BITMAP
40
E0
60
70
30
38
38
30
70
60
E0
40
ENDCHAR
STARTCHAR 20AC
ENCODING 8364
SWIDTH 548 0
DWIDTH 16 0
BBX 14 22 1 0
BITMAP
01F0
07FC
0F0C
1C00
1800
1800
3000
3000
7FF8
FFF0
3000
3000
7FE0
FFE0
3000
3000
1800
1800
1C00
0E0C
07FC
03F0
ENDCHAR
STARTCHAR 2122
ENCODING 8482
SWIDTH 994 0
DWIDTH 29 0
BBX 24 13 0 9
BITMAP
FF3807
183807
183C0F
18340B
18340B
18361B
183213
183333
183123
1831E3
1831E3
1830C3
1830C3
ENDCHAR
STARTCHAR 2202
ENCODING 8706
SWIDTH 480 0
DWIDTH 14 0
BBX 12 22 1 -2
BITMAP
1F00
7F80
01C0
0060
0060
0030
0030
0030
0030
0E30
3FB0
78F0
6030
E030
C030
C070
C060
C060
C0C0
61C0
3380
1F00
ENDCHAR
STARTCHAR 2206
ENCODING 8710
SWIDTH 617 0
DWIDTH 18 0
BBX 18 20 0 1
BITMAP
004000
004000
00E000
00E000
01F000
017000
037000
023800
063800
043C00
041C00
081C00
080E00
100E00
100700
200700
200700
400380
400380
FFFFC0
ENDCHAR
STARTCHAR 2211
ENCODING 8721
SWIDTH 617 0
DWIDTH 18 0
BBX 16 21 1 0
BITMAP
FFFC
7FFC
3004
3800
1C00
0E00
0700
0700
0380
01C0
00E0
00C0
0180
0300
0600
0400
0C01
1801
3003
7FFE
FFFE
ENDCHAR
STARTCHAR 2219
ENCODING 8729
SWIDTH 274 0
DWIDTH 8 0
BBX 2 4 3 6
BITMAP
C0
C0
C0
C0
ENDCHAR
STARTCHAR 221A
ENCODING 8730
SWIDTH 445 0
DWIDTH 13 0
BBX 13 23 0 -2
BITMAP
0018
0018
0018
0010
0010
0030
0030
0030
0030
1030
7020
9860
0860
0C60
0460
0660
0240
03C0
01C0
01C0
00C0
00C0
0080
ENDCHAR
STARTCHAR 2260
ENCODING 8800
SWIDTH 548 0
DWIDTH 16 0
BBX 15 16 0 0
BITMAP
0030
0030
0070
0060
FFFE
FFFE
0180
0380
0300
0700
FFFE
FFFE
1C00
1800
3800
1000
ENDCHAR
STARTCHAR 2264
ENCODING 8804
SWIDTH 548 0
DWIDTH 16 0
BBX 15 19 1 1
BITMAP
0006
001E
007C
03E0
0F80
3E00
F800
E000
F800
1F00
07C0
01F0
007E
000E
0002
0000
0000
FFFE
FFFE
ENDCHAR
STARTCHAR 2265
ENCODING 8805
SWIDTH 548 0
DWIDTH 16 0
BBX 15 19 1 1
BITMAP
C000
F000
7C00
0F80
03E0
00F8
003E
000E
003E
01F0
07C0
1F00
F800
E000
8000
0000
0000
FFFE
FFFE
ENDCHAR
STARTCHAR 25CA
ENCODING 9674
SWIDTH 480 0
DWIDTH 14 0
BBX 13 21 0 1
BITMAP
0700
0700
0F80
0D80
18C0
18C0
3060
3060
6030
6038
C018
6030
6030
3060
3060
18C0
1CC0
0D80
0F80
0700
0700
ENDCHAR
ENDFONT
